<svg id="svg" version="1.1" xmlns="http://www.w3.org/2000/svg" xmlns:xlink="http://www.w3.org/1999/xlink" width="400" height="225" viewBox="0, 0, 400,225"><g id="svgg"><path id="path0" d="M53.682 93.181 L 49.281 97.643 50.247 98.613 C 51.284 99.655,52.500 101.209,52.500 101.493 C 52.500 101.588,52.575 101.667,52.667 101.667 C 52.758 101.667,52.833 101.779,52.833 101.917 C 52.833 102.054,52.921 102.167,53.028 102.167 C 53.135 102.167,53.174 102.214,53.116 102.273 C 53.058 102.331,53.158 102.587,53.338 102.840 C 53.519 103.094,53.667 103.406,53.667 103.534 C 53.667 103.662,53.757 103.857,53.867 103.967 C 53.977 104.077,54.005 104.167,53.930 104.167 C 53.854 104.167,53.880 104.272,53.986 104.400 C 54.092 104.528,54.212 104.772,54.252 104.941 C 54.291 105.111,54.410 105.587,54.514 106.000 C 54.619 106.412,54.726 106.913,54.753 107.112 C 54.779 107.311,54.849 107.691,54.907 107.957 C 54.966 108.223,55.023 109.204,55.035 110.137 L 55.058 111.833 55.487 111.858 C 56.237 111.901,56.403 111.924,57.000 112.069 C 58.258 112.375,59.427 113.080,60.500 114.179 C 61.847 115.559,61.997 115.759,62.250 116.500 C 62.265 116.546,62.372 116.808,62.486 117.083 C 63.071 118.489,63.069 120.922,62.482 122.292 C 62.315 122.681,62.214 123.000,62.258 123.000 C 62.447 123.000,61.369 124.489,60.596 125.295 C 59.814 126.112,58.271 127.080,57.440 127.277 C 57.244 127.324,56.783 127.427,56.417 127.507 C 56.050 127.587,52.019 127.655,47.458 127.659 L 39.167 127.667 39.167 134.093 L 39.167 140.518 48.208 140.442 C 58.732 140.352,57.952 140.411,61.667 139.429 C 63.981 138.817,67.644 136.548,69.750 134.420 C 71.122 133.035,73.558 129.833,73.241 129.833 C 73.188 129.833,73.285 129.627,73.457 129.375 C 74.012 128.565,75.015 126.052,75.252 124.883 C 75.303 124.627,75.436 123.967,75.545 123.417 C 75.798 122.148,75.795 117.209,75.540 116.000 C 75.434 115.496,75.308 114.896,75.259 114.668 C 74.911 113.036,72.970 108.715,72.338 108.167 C 72.285 108.121,72.107 107.871,71.942 107.612 C 71.213 106.467,68.639 103.841,67.431 103.010 C 66.882 102.632,66.667 102.371,66.667 102.085 C 66.667 101.866,66.601 101.646,66.522 101.597 C 66.442 101.547,66.320 101.262,66.250 100.962 C 66.181 100.662,66.105 100.338,66.082 100.243 C 65.909 99.532,63.872 95.437,63.484 95.021 C 63.320 94.846,63.217 94.672,63.253 94.636 C 63.290 94.599,63.135 94.354,62.910 94.092 C 62.684 93.830,62.500 93.566,62.500 93.506 C 62.500 93.445,62.368 93.251,62.207 93.073 C 62.046 92.895,61.652 92.413,61.332 92.000 C 61.012 91.588,60.563 91.058,60.333 90.823 C 60.104 90.588,59.758 90.213,59.565 89.990 C 59.218 89.588,58.155 88.643,58.108 88.693 C 58.094 88.707,56.103 90.726,53.682 93.181 " stroke="none" fill="#4484f4" fill-rule="evenodd"></path><path id="path1" d="M37.332 81.553 C 37.285 81.602,36.723 81.680,36.082 81.726 C 35.441 81.773,34.467 81.897,33.917 82.002 C 33.367 82.107,32.757 82.216,32.562 82.246 C 32.368 82.275,32.059 82.379,31.876 82.477 C 31.693 82.575,31.498 82.609,31.443 82.554 C 31.387 82.498,31.246 82.528,31.129 82.621 C 31.012 82.713,30.729 82.830,30.500 82.880 C 29.261 83.150,29.169 83.186,26.667 84.384 C 25.887 84.757,25.044 85.203,24.792 85.376 C 24.540 85.548,24.332 85.628,24.331 85.553 C 24.329 85.478,24.273 85.495,24.206 85.591 C 24.138 85.687,23.821 85.944,23.500 86.162 C 20.632 88.109,18.118 90.449,16.333 92.830 C 16.104 93.136,15.818 93.487,15.696 93.610 C 15.575 93.733,15.538 93.834,15.613 93.836 C 15.688 93.837,15.668 93.894,15.568 93.961 C 15.067 94.299,12.474 99.258,12.248 100.312 C 12.216 100.461,12.043 101.033,11.864 101.583 C 11.458 102.831,11.422 102.811,12.690 102.042 C 13.707 101.425,15.219 100.667,15.431 100.667 C 15.487 100.667,15.769 100.558,16.058 100.425 C 18.338 99.374,22.538 98.820,25.444 99.187 L 27.415 99.437 28.247 98.677 C 28.705 98.259,29.155 97.831,29.248 97.726 C 29.341 97.622,29.754 97.329,30.167 97.077 C 30.579 96.824,30.954 96.569,31.000 96.510 C 31.142 96.327,33.941 95.035,34.465 94.911 C 34.622 94.873,35.050 94.763,35.417 94.665 C 37.969 93.982,41.151 94.113,44.083 95.022 C 44.450 95.136,44.790 95.233,44.840 95.239 C 45.178 95.280,47.833 96.731,47.833 96.876 C 47.833 96.975,47.879 97.010,47.934 96.954 C 48.032 96.857,48.207 96.967,48.804 97.500 C 49.059 97.728,49.477 97.352,53.583 93.198 L 58.083 88.646 57.667 88.338 C 57.438 88.169,57.071 87.874,56.851 87.683 C 56.632 87.492,55.919 86.979,55.268 86.543 C 54.616 86.107,54.046 85.712,54.000 85.667 C 53.791 85.458,50.667 83.816,50.667 83.915 C 50.667 83.952,50.259 83.795,49.760 83.566 C 49.261 83.338,48.718 83.123,48.552 83.088 C 48.386 83.053,47.769 82.868,47.182 82.677 C 46.594 82.486,45.937 82.297,45.722 82.257 C 45.506 82.217,44.862 82.097,44.290 81.989 C 42.585 81.669,37.524 81.352,37.332 81.553 " stroke="none" fill="#ec4434" fill-rule="evenodd"></path><path id="path2" d="M15.617 131.240 C 10.398 136.472,10.736 136.094,11.025 136.376 C 11.344 136.686,12.972 137.667,13.169 137.667 C 13.259 137.667,13.333 137.723,13.333 137.793 C 13.333 137.862,13.577 138.023,13.875 138.150 C 14.173 138.277,14.751 138.529,15.159 138.710 C 15.568 138.891,15.980 139.056,16.076 139.077 C 16.662 139.203,17.273 139.396,17.417 139.500 C 17.569 139.610,18.208 139.749,19.353 139.922 C 19.593 139.959,20.096 140.057,20.472 140.142 C 20.848 140.226,25.208 140.308,30.161 140.323 L 39.167 140.351 39.167 133.921 L 39.167 127.491 30.508 127.506 C 24.516 127.516,21.745 127.464,21.508 127.338 C 21.320 127.237,21.167 127.196,21.167 127.246 C 21.167 127.297,20.903 127.228,20.582 127.093 L 19.996 126.849 15.617 131.240 " stroke="none" fill="#34ac54" fill-rule="evenodd"></path><path id="path3" d="M20.583 99.257 C 18.998 99.486,16.935 100.018,16.058 100.423 C 15.769 100.557,15.487 100.667,15.431 100.667 C 15.044 100.667,11.646 102.569,10.917 103.194 C 10.733 103.351,10.396 103.636,10.167 103.826 C 9.479 104.398,7.773 106.115,7.428 106.583 C 7.250 106.823,6.931 107.222,6.718 107.468 C 6.505 107.715,6.289 108.048,6.238 108.208 C 6.186 108.369,6.074 108.500,5.989 108.500 C 5.903 108.500,5.833 108.612,5.833 108.750 C 5.833 108.888,5.746 109.000,5.639 109.000 C 5.532 109.000,5.492 109.048,5.551 109.106 C 5.609 109.165,5.518 109.408,5.349 109.648 C 4.867 110.331,3.625 113.340,3.415 114.333 C 3.406 114.379,3.332 114.679,3.252 115.000 C 3.171 115.321,3.097 115.658,3.087 115.750 C 3.076 115.842,3.017 116.254,2.955 116.667 C 2.708 118.309,2.667 119.996,2.834 121.583 C 3.063 123.745,3.103 124.002,3.298 124.500 C 3.387 124.729,3.469 124.992,3.480 125.083 C 3.561 125.749,3.728 126.351,3.852 126.428 C 3.934 126.479,4.000 126.657,4.000 126.824 C 4.000 127.411,6.227 131.511,6.742 131.872 C 6.838 131.940,6.861 131.996,6.793 131.997 C 6.647 132.000,7.192 132.679,7.961 133.452 C 8.261 133.754,8.468 134.000,8.421 134.000 C 8.375 134.000,8.465 134.150,8.622 134.333 C 8.779 134.517,8.972 134.667,9.050 134.667 C 9.129 134.667,9.499 134.967,9.873 135.333 C 10.786 136.228,10.329 136.549,15.429 131.430 L 19.982 126.860 19.574 126.593 C 19.350 126.446,19.167 126.368,19.167 126.419 C 19.167 126.535,18.916 126.326,17.710 125.208 C 17.191 124.727,16.822 124.333,16.890 124.333 C 16.957 124.333,16.864 124.173,16.681 123.977 C 16.316 123.586,15.847 122.671,15.749 122.160 C 15.714 121.980,15.649 121.772,15.603 121.699 C 15.267 121.155,15.327 118.917,15.726 117.083 C 15.774 116.865,16.558 115.274,16.671 115.167 C 16.719 115.121,17.007 114.765,17.310 114.375 C 17.613 113.985,17.933 113.667,18.021 113.667 C 18.109 113.667,18.345 113.514,18.545 113.327 C 19.096 112.814,20.732 112.072,21.750 111.874 C 22.599 111.709,25.250 111.804,25.250 112.000 C 25.250 112.014,25.363 112.048,25.500 112.076 C 25.637 112.103,26.050 112.259,26.417 112.422 C 26.783 112.585,27.140 112.707,27.208 112.692 C 27.277 112.678,27.333 112.742,27.333 112.833 C 27.333 112.925,27.429 113.000,27.546 113.000 C 27.844 113.000,29.723 114.960,30.103 115.667 C 30.275 115.987,30.431 116.277,30.449 116.310 C 30.466 116.343,32.554 114.296,35.088 111.761 C 39.896 106.954,39.773 107.113,39.167 106.499 C 39.121 106.452,38.588 105.890,37.983 105.249 C 37.378 104.608,36.850 104.083,36.810 104.083 C 36.770 104.083,36.496 103.837,36.202 103.536 C 35.907 103.235,35.666 103.047,35.664 103.119 C 35.663 103.191,35.606 103.175,35.539 103.083 C 34.969 102.305,31.385 100.580,28.500 99.696 C 26.515 99.087,23.077 98.897,20.583 99.257 " stroke="none" fill="#fcbc04" fill-rule="evenodd"></path><path id="path4" d="M38.458 81.455 C 38.848 81.490,39.485 81.490,39.875 81.455 C 40.265 81.420,39.946 81.392,39.167 81.392 C 38.387 81.392,38.069 81.420,38.458 81.455 M36.542 81.615 C 36.702 81.657,36.965 81.657,37.125 81.615 C 37.285 81.573,37.154 81.539,36.833 81.539 C 36.512 81.539,36.381 81.573,36.542 81.615 M25.708 84.672 C 25.502 84.755,25.333 84.863,25.333 84.911 C 25.333 85.073,25.599 85.003,25.926 84.755 C 26.295 84.476,26.244 84.457,25.708 84.672 M53.582 93.208 L 49.250 97.583 53.625 93.251 C 57.691 89.225,58.075 88.833,57.957 88.833 C 57.934 88.833,55.965 90.802,53.582 93.208 M116.153 90.070 C 116.114 90.108,115.445 90.226,114.666 90.333 C 111.968 90.701,106.944 92.782,105.833 93.993 C 105.787 94.042,105.412 94.355,105.000 94.687 C 104.130 95.387,102.271 97.237,101.667 98.005 C 101.438 98.297,101.170 98.621,101.073 98.726 C 100.846 98.970,99.667 100.813,99.667 100.923 C 99.667 100.969,99.479 101.304,99.250 101.667 C 99.021 102.030,98.833 102.411,98.833 102.513 C 98.833 102.616,98.728 102.936,98.599 103.225 C 98.230 104.052,97.869 105.177,97.682 106.083 C 97.587 106.542,97.432 107.269,97.338 107.699 C 97.244 108.129,97.167 109.540,97.167 110.833 C 97.167 112.127,97.244 113.538,97.338 113.968 C 97.432 114.398,97.587 115.125,97.682 115.583 C 97.869 116.489,98.230 117.614,98.599 118.442 C 98.728 118.731,98.833 119.051,98.833 119.154 C 98.833 119.256,99.021 119.637,99.250 120.000 C 99.479 120.363,99.667 120.698,99.667 120.743 C 99.667 120.854,100.846 122.697,101.073 122.941 C 101.170 123.046,101.438 123.370,101.667 123.661 C 102.638 124.896,104.933 127.023,106.088 127.760 C 106.360 127.933,106.621 128.125,106.667 128.186 C 106.793 128.352,107.825 128.947,108.667 129.337 C 109.079 129.529,109.717 129.826,110.083 129.996 C 110.450 130.167,111.200 130.433,111.750 130.587 C 112.300 130.741,112.938 130.932,113.167 131.011 C 114.446 131.452,118.835 131.620,121.417 131.327 C 123.619 131.077,128.052 129.556,128.306 128.963 C 128.336 128.892,128.462 128.833,128.585 128.833 C 128.709 128.833,128.909 128.735,129.030 128.614 C 129.151 128.493,129.475 128.249,129.750 128.072 C 131.362 127.033,133.927 124.352,134.763 122.833 C 134.939 122.513,135.121 122.212,135.167 122.167 C 136.748 120.585,138.223 111.381,137.256 109.125 C 137.139 108.852,136.517 108.833,127.566 108.833 L 118.000 108.833 118.000 111.750 L 118.000 114.667 124.761 114.667 C 131.120 114.667,131.518 114.684,131.442 114.958 C 131.398 115.119,131.311 115.617,131.250 116.066 C 131.189 116.515,131.058 117.040,130.960 117.233 C 130.572 117.993,130.500 118.169,130.500 118.355 C 130.500 119.115,127.542 122.639,126.671 122.915 C 126.485 122.974,126.333 123.085,126.333 123.161 C 126.333 123.341,123.698 124.667,123.340 124.667 C 123.189 124.667,122.995 124.729,122.908 124.805 C 121.406 126.120,114.744 125.671,111.583 124.041 C 109.815 123.128,106.333 120.235,106.333 119.677 C 106.333 119.608,106.145 119.334,105.916 119.068 C 105.686 118.801,105.451 118.433,105.393 118.250 C 105.336 118.067,105.239 117.879,105.178 117.833 C 104.968 117.675,104.213 115.745,103.906 114.583 C 103.474 112.948,103.470 108.745,103.899 107.083 C 104.215 105.860,105.756 102.500,106.002 102.500 C 106.080 102.500,106.191 102.351,106.249 102.170 C 106.522 101.311,109.565 98.602,111.333 97.643 C 116.453 94.869,123.626 95.668,127.663 99.461 L 128.242 100.006 130.330 97.913 L 132.417 95.819 131.500 94.972 C 130.996 94.505,130.283 93.935,129.917 93.704 C 129.550 93.473,129.212 93.238,129.167 93.183 C 129.121 93.128,128.821 92.942,128.500 92.770 C 128.179 92.598,127.600 92.286,127.212 92.077 C 126.825 91.868,126.150 91.570,125.712 91.414 C 125.275 91.259,124.767 91.073,124.583 91.001 C 122.826 90.316,116.595 89.627,116.153 90.070 M226.833 111.083 L 226.833 130.667 229.833 130.667 L 232.833 130.667 232.833 111.083 L 232.833 91.500 229.833 91.500 L 226.833 91.500 226.833 111.083 M288.083 93.827 C 286.956 93.958,284.601 94.521,283.917 94.823 C 282.847 95.295,280.546 96.446,280.333 96.616 C 280.196 96.725,279.633 97.149,279.083 97.557 C 278.021 98.345,276.072 100.309,275.559 101.106 C 275.391 101.368,275.120 101.729,274.958 101.908 C 274.513 102.399,273.073 105.451,272.753 106.583 C 272.597 107.133,272.404 107.751,272.323 107.957 C 272.242 108.162,272.096 109.313,271.999 110.514 C 271.577 115.743,272.548 119.769,275.153 123.583 C 275.960 124.765,277.681 126.596,278.836 127.500 C 279.129 127.729,279.456 127.999,279.563 128.099 C 280.263 128.755,283.301 130.226,285.000 130.732 C 291.651 132.712,299.105 130.976,303.870 126.338 L 305.246 124.998 303.551 123.303 L 301.856 121.608 300.851 122.636 C 298.252 125.291,293.328 127.283,290.241 126.927 C 289.971 126.896,289.300 126.819,288.750 126.756 C 287.467 126.609,286.147 126.247,285.037 125.737 C 284.553 125.515,284.120 125.333,284.075 125.333 C 284.030 125.333,283.677 125.127,283.290 124.875 C 281.056 123.417,279.435 121.610,278.320 119.333 C 277.415 117.487,277.219 116.882,277.006 115.280 C 276.295 109.925,277.592 105.603,280.911 102.265 C 281.887 101.283,283.135 100.333,283.450 100.333 C 283.569 100.333,283.668 100.277,283.669 100.208 C 283.670 100.096,284.366 99.747,285.500 99.290 C 285.729 99.198,286.067 99.061,286.250 98.986 C 287.797 98.354,291.794 98.176,293.917 98.645 C 294.863 98.854,296.888 99.664,296.972 99.866 C 297.003 99.940,297.134 100.000,297.264 100.000 C 297.394 100.000,297.500 100.070,297.500 100.155 C 297.500 100.241,297.669 100.364,297.875 100.429 C 298.081 100.494,298.761 101.043,299.385 101.649 C 300.853 103.073,300.609 103.104,302.458 101.264 L 304.068 99.662 302.705 98.331 C 301.955 97.599,301.279 97.000,301.202 97.000 C 301.126 97.000,300.913 96.869,300.729 96.708 C 300.003 96.075,297.409 94.769,296.370 94.514 C 296.029 94.431,295.300 94.239,294.750 94.088 C 293.586 93.769,289.848 93.622,288.083 93.827 M38.542 94.288 C 38.885 94.324,39.448 94.324,39.792 94.288 C 40.135 94.252,39.854 94.223,39.167 94.223 C 38.479 94.223,38.198 94.252,38.542 94.288 M36.083 94.500 C 35.873 94.590,35.842 94.643,36.000 94.643 C 36.137 94.643,36.400 94.579,36.583 94.500 C 36.793 94.410,36.824 94.357,36.667 94.357 C 36.529 94.357,36.267 94.421,36.083 94.500 M309.000 112.583 L 309.000 130.667 311.417 130.667 L 313.833 130.667 313.833 112.583 L 313.833 94.500 311.417 94.500 L 309.000 94.500 309.000 112.583 M392.545 101.542 C 392.588 105.415,392.676 108.771,392.741 109.000 C 392.852 109.395,392.839 109.391,392.475 108.917 C 391.573 107.740,390.195 106.647,388.917 106.094 C 388.550 105.935,388.130 105.743,387.984 105.667 C 385.773 104.520,380.772 105.148,378.167 106.900 C 373.135 110.285,370.916 118.305,373.474 123.866 C 373.671 124.296,373.833 124.696,373.833 124.754 C 373.833 125.047,375.605 127.438,376.425 128.251 C 380.653 132.446,387.581 132.613,391.542 128.614 L 392.667 127.479 392.667 129.073 L 392.667 130.667 395.000 130.667 L 397.333 130.667 397.333 112.583 L 397.333 94.500 394.900 94.500 L 392.467 94.500 392.545 101.542 M37.823 105.047 C 38.230 105.475,38.589 105.800,38.622 105.767 C 38.689 105.700,37.895 104.881,37.402 104.508 C 37.227 104.375,37.416 104.618,37.823 105.047 M151.083 104.916 C 143.252 106.022,138.606 112.038,139.466 119.958 C 139.722 122.314,140.659 124.798,141.784 126.106 C 142.010 126.369,142.395 126.835,142.639 127.142 C 143.171 127.811,145.587 129.667,145.927 129.667 C 146.059 129.667,146.168 129.723,146.169 129.792 C 146.170 129.901,146.583 130.112,147.917 130.686 C 148.682 131.015,150.324 131.338,151.739 131.437 C 161.424 132.116,168.380 123.284,165.538 113.917 C 165.399 113.458,165.221 113.012,165.143 112.925 C 165.064 112.838,165.000 112.670,165.000 112.553 C 165.000 112.301,163.853 110.393,163.300 109.726 C 161.095 107.061,157.830 105.295,154.417 104.922 C 153.867 104.862,153.229 104.788,153.000 104.758 C 152.771 104.729,151.908 104.799,151.083 104.916 M179.917 104.924 C 174.561 105.784,170.985 108.671,168.985 113.750 C 168.054 116.115,168.218 120.995,169.307 123.366 C 169.505 123.796,169.667 124.189,169.667 124.238 C 169.667 124.340,170.806 126.141,171.072 126.458 C 172.621 128.305,174.910 129.949,176.833 130.594 C 177.338 130.764,177.829 130.958,177.925 131.027 C 178.880 131.709,184.380 131.521,186.358 130.738 C 192.228 128.414,195.083 124.300,195.083 118.167 C 195.083 110.925,190.662 105.961,183.218 104.846 C 181.824 104.637,181.685 104.641,179.917 104.924 M208.000 104.911 C 206.206 105.306,203.333 106.493,203.333 106.841 C 203.333 106.916,203.186 107.024,203.006 107.081 C 202.035 107.390,199.454 110.498,198.576 112.416 C 197.168 115.495,196.997 120.263,198.197 123.000 C 199.135 125.138,199.801 126.130,201.300 127.618 C 202.006 128.318,202.696 128.977,202.833 129.082 C 203.357 129.483,204.785 130.295,205.176 130.416 C 205.400 130.484,205.658 130.597,205.750 130.667 C 206.977 131.593,212.284 131.650,214.124 130.757 C 214.605 130.524,215.035 130.333,215.081 130.333 C 215.177 130.333,215.641 129.960,216.480 129.209 L 217.083 128.668 217.184 129.709 C 217.524 133.228,216.094 136.151,213.404 137.435 C 211.313 138.433,207.625 137.971,206.133 136.525 C 205.977 136.374,205.752 136.157,205.633 136.043 C 204.875 135.319,203.833 133.849,203.833 133.504 C 203.833 133.269,203.476 133.291,202.901 133.560 C 202.634 133.685,201.535 134.145,200.458 134.584 C 199.381 135.022,198.500 135.441,198.500 135.516 C 198.500 135.852,199.409 137.517,199.916 138.112 C 200.008 138.220,200.383 138.678,200.750 139.131 C 204.059 143.215,210.636 144.627,215.869 142.379 C 216.445 142.131,216.942 141.870,216.972 141.798 C 217.003 141.726,217.134 141.667,217.264 141.667 C 217.394 141.667,217.500 141.597,217.500 141.511 C 217.500 141.426,217.652 141.308,217.838 141.249 C 219.098 140.849,221.617 137.395,222.335 135.083 C 222.449 134.717,222.627 134.229,222.730 134.000 C 222.862 133.706,222.931 129.489,222.965 119.625 L 223.013 105.667 220.173 105.667 L 217.333 105.667 217.333 106.723 L 217.333 107.780 216.568 107.077 C 214.523 105.200,210.879 104.279,208.000 104.911 M246.083 104.921 C 244.129 105.278,241.167 106.440,241.167 106.850 C 241.167 106.920,241.024 107.023,240.850 107.078 C 240.347 107.238,238.431 109.196,237.776 110.220 C 236.679 111.936,236.272 112.908,235.673 115.250 C 235.302 116.696,235.511 121.015,235.998 122.005 C 236.068 122.146,236.178 122.504,236.243 122.800 C 236.544 124.170,238.078 126.561,239.548 127.952 C 245.302 133.394,254.953 132.464,259.482 126.032 C 259.932 125.393,260.018 125.507,258.167 124.298 C 257.571 123.909,257.046 123.551,257.000 123.502 C 256.436 122.903,255.000 122.303,255.000 122.667 C 255.000 122.821,253.570 124.300,252.929 124.808 C 251.204 126.175,247.826 126.443,245.635 125.386 C 244.439 124.809,242.193 122.545,242.530 122.256 C 242.673 122.133,244.877 121.167,245.014 121.167 C 245.100 121.167,245.301 121.100,245.461 121.019 C 245.620 120.938,245.938 120.793,246.167 120.696 C 246.396 120.598,246.996 120.338,247.500 120.116 C 248.004 119.894,248.604 119.654,248.833 119.583 C 249.063 119.512,249.639 119.277,250.114 119.060 C 250.590 118.844,251.019 118.667,251.068 118.667 C 251.117 118.667,251.553 118.489,252.037 118.273 C 252.521 118.056,253.479 117.665,254.167 117.404 C 254.854 117.144,255.663 116.796,255.963 116.632 C 256.264 116.468,256.588 116.333,256.682 116.333 C 256.777 116.333,257.260 116.148,257.756 115.921 C 258.252 115.694,258.848 115.461,259.080 115.402 C 259.313 115.344,259.544 115.230,259.595 115.148 C 259.645 115.067,259.832 115.000,260.010 115.000 C 260.410 115.000,260.410 114.976,260.000 114.127 C 259.817 113.748,259.667 113.358,259.666 113.260 C 259.666 113.028,258.771 111.336,258.066 110.234 C 255.509 106.237,250.660 104.087,246.083 104.921 M328.283 105.267 C 325.408 105.715,322.796 107.079,320.974 109.083 C 319.915 110.249,319.646 110.637,319.020 111.910 C 317.587 114.820,317.166 117.810,317.751 120.917 C 317.993 122.200,318.130 122.669,318.581 123.750 C 319.152 125.123,319.258 125.333,319.374 125.333 C 319.443 125.333,319.500 125.430,319.500 125.547 C 319.500 125.949,321.729 128.419,322.766 129.167 C 325.870 131.404,331.082 132.140,334.500 130.825 C 335.004 130.631,335.567 130.427,335.750 130.373 C 336.049 130.284,337.538 129.387,338.149 128.928 C 338.465 128.691,340.355 126.798,340.650 126.423 C 343.407 122.926,343.828 115.879,341.534 111.667 C 341.078 110.831,340.047 109.404,339.464 108.804 C 338.986 108.312,337.561 107.167,337.427 107.167 C 337.372 107.167,337.031 106.980,336.669 106.752 C 334.454 105.353,331.303 104.795,328.283 105.267 M346.667 114.490 C 346.667 121.630,346.711 123.337,346.919 124.234 C 347.195 125.422,347.944 127.285,348.290 127.641 C 348.410 127.764,348.616 128.073,348.747 128.328 C 349.616 130.008,353.127 131.667,355.812 131.667 C 357.508 131.666,360.685 130.779,361.167 130.171 C 361.212 130.114,361.606 129.814,362.041 129.505 C 362.476 129.197,363.095 128.607,363.416 128.195 L 364.000 127.445 364.000 129.056 L 364.000 130.667 366.333 130.667 L 368.667 130.667 368.667 118.250 L 368.667 105.833 366.258 105.833 L 363.848 105.833 363.798 113.792 L 363.747 121.750 363.341 122.667 C 361.723 126.318,358.663 127.914,355.333 126.842 C 354.171 126.468,352.500 125.205,352.500 124.700 C 352.500 124.605,352.444 124.503,352.375 124.472 C 351.696 124.170,351.585 122.819,351.533 114.208 L 351.483 105.833 349.075 105.833 L 346.667 105.833 346.667 114.490 M332.667 109.878 C 341.338 113.124,339.452 127.003,330.333 127.048 C 328.789 127.055,326.548 126.450,326.361 125.975 C 326.331 125.897,326.218 125.832,326.111 125.830 C 325.451 125.817,323.431 123.106,322.804 121.395 C 322.281 119.963,322.293 116.497,322.827 115.167 C 323.029 114.662,323.235 114.119,323.283 113.958 C 323.332 113.798,323.438 113.667,323.519 113.667 C 323.600 113.667,323.667 113.569,323.667 113.449 C 323.667 113.329,323.873 112.975,324.125 112.662 C 325.512 110.940,326.815 110.135,329.083 109.596 C 329.655 109.460,332.054 109.649,332.667 109.878 M388.063 110.142 C 389.245 110.681,391.333 112.563,391.333 113.087 C 391.333 113.223,391.391 113.333,391.461 113.333 C 391.640 113.333,392.140 114.537,392.428 115.659 C 393.306 119.086,392.393 122.800,390.131 125.003 C 389.410 125.706,388.884 126.026,387.018 126.896 C 386.516 127.130,383.475 127.123,382.965 126.886 C 381.188 126.063,380.629 125.730,379.956 125.095 C 373.161 118.676,379.828 106.381,388.063 110.142 M249.867 110.355 C 251.610 110.727,253.631 112.613,252.625 112.928 C 252.419 112.993,251.861 113.223,251.386 113.440 C 250.910 113.656,250.481 113.833,250.432 113.833 C 250.383 113.833,249.933 114.021,249.432 114.250 C 248.931 114.479,248.454 114.667,248.372 114.667 C 248.290 114.667,247.854 114.854,247.403 115.083 C 246.952 115.311,246.526 115.499,246.457 115.499 C 246.387 115.500,246.012 115.644,245.623 115.821 C 244.416 116.369,241.621 117.500,241.474 117.500 C 240.958 117.500,241.772 114.546,242.626 113.316 C 244.368 110.807,246.981 109.739,249.867 110.355 M155.886 110.997 C 164.458 115.362,158.898 129.003,149.965 125.522 C 148.938 125.122,147.937 124.321,146.817 123.000 C 145.581 121.543,144.757 116.343,145.625 115.475 C 145.740 115.360,145.833 115.166,145.833 115.042 C 145.833 114.756,146.899 113.066,147.476 112.437 C 149.425 110.314,153.257 109.657,155.886 110.997 M184.833 110.926 C 188.451 112.838,190.007 116.777,188.731 120.792 C 188.491 121.548,188.228 122.167,188.147 122.167 C 188.066 122.167,188.000 122.288,188.000 122.436 C 188.000 123.304,185.104 125.438,183.250 125.938 C 177.435 127.505,172.335 120.305,175.143 114.492 C 176.882 110.892,181.532 109.181,184.833 110.926 M212.920 110.623 C 213.102 110.718,213.541 110.936,213.897 111.107 C 217.339 112.757,218.731 118.532,216.640 122.488 C 214.975 125.636,211.270 126.963,208.058 125.562 C 207.769 125.436,207.489 125.333,207.435 125.333 C 207.017 125.333,204.980 123.219,204.385 122.167 C 201.976 117.909,204.104 111.970,208.500 110.680 C 208.912 110.559,209.325 110.432,209.417 110.399 C 209.759 110.274,212.603 110.456,212.920 110.623 M23.208 111.782 C 23.369 111.823,23.631 111.823,23.792 111.782 C 23.952 111.740,23.821 111.705,23.500 111.705 C 23.179 111.705,23.048 111.740,23.208 111.782 M3.852 112.519 C 3.749 112.813,3.694 113.083,3.730 113.119 C 3.766 113.155,3.879 112.943,3.981 112.648 C 4.084 112.354,4.139 112.083,4.103 112.048 C 4.068 112.012,3.955 112.224,3.852 112.519 M15.383 119.500 C 15.383 120.004,15.415 120.210,15.453 119.958 C 15.491 119.706,15.491 119.294,15.453 119.042 C 15.415 118.790,15.383 118.996,15.383 119.500 M75.883 119.667 C 75.883 120.171,75.915 120.377,75.953 120.125 C 75.991 119.873,75.991 119.460,75.953 119.208 C 75.915 118.956,75.883 119.162,75.883 119.667 M62.879 119.667 C 62.879 120.079,62.911 120.248,62.951 120.042 C 62.991 119.835,62.991 119.498,62.951 119.292 C 62.911 119.085,62.879 119.254,62.879 119.667 M2.705 121.167 C 2.705 121.487,2.740 121.619,2.782 121.458 C 2.823 121.298,2.823 121.035,2.782 120.875 C 2.740 120.715,2.705 120.846,2.705 121.167 M43.387 127.625 C 45.753 127.651,49.578 127.651,51.887 127.625 C 54.195 127.599,52.258 127.577,47.583 127.577 C 42.908 127.577,41.020 127.599,43.387 127.625 M4.500 128.458 C 4.500 128.538,4.609 128.749,4.742 128.926 C 4.975 129.239,4.980 129.237,4.888 128.872 C 4.793 128.496,4.500 128.183,4.500 128.458 M10.321 135.888 C 10.745 136.356,10.837 136.414,10.828 136.208 C 10.825 136.140,10.619 135.939,10.370 135.763 L 9.917 135.443 10.321 135.888 M16.282 139.182 C 16.368 139.268,16.688 139.411,16.992 139.498 C 17.710 139.704,17.506 139.500,16.726 139.232 C 16.395 139.118,16.196 139.096,16.282 139.182 M21.375 140.282 C 21.535 140.323,21.798 140.323,21.958 140.282 C 22.119 140.240,21.988 140.205,21.667 140.205 C 21.346 140.205,21.215 140.240,21.375 140.282 " stroke="none" fill="#5c646c" fill-rule="evenodd"></path></g></svg>